# xmcd
#
# Track frame offsets:
#	150
#	10727
#	21482
#	33585
#	43047
#	55557
#	70992
#	81204
#	94070
#	104012
#	119857
#	128410
#	142087
#	156685
#	166090
#
# Disc length: 2367 seconds
#
# Revision: 0
# Processed by: cddbd v1.4PL0 Copyright (c) Steve Scherf et al.
# Submitted via: dBpowerAMP V4.0
#
DISCID=d3093d0f
DTITLE=Driftin' Slim And His Blues Band - Somebody Hoo-Doo'd The Hoo-Doo Man
DYEAR=1999
DGENRE=Blues
TTITLE0=Jackson Blues
TTITLE1=How Many More Years?
TTITLE2=Hoo-Doo Man Blues
TTITLE3=Mama Blues
TTITLE4=Standing Around Crying
TTITLE5=Give An Account
TTITLE6=Jack 'O Diamonds
TTITLE7=My Little Machine
TTITLE8=Mama Don't Tear My Clothes
TTITLE9=This World Is None Of My Home
TTITLE10=A Dip Of Snuff  And A Narrow Escape
TTITLE11=Till I Got Sixteen
TTITLE12=Christine Blues
TTITLE13=Jonah
TTITLE14=I'm Hunting Somebody
EXTD=
EXTT0=
EXTT1=
EXTT2=
EXTT3=
EXTT4=
EXTT5=
EXTT6=
EXTT7=
EXTT8=
EXTT9=
EXTT10=
EXTT11=
EXTT12=
EXTT13=
EXTT14=
PLAYORDER=
